<svg xmlns="http://www.w3.org/2000/svg" viewBox="0 0 220 56" fill="none">
  <!-- Icon mark -->
  <rect width="56" height="56" rx="14" fill="#1D9E75"/>
  <g transform="translate(17, 17) scale(0.9167)" stroke="white" stroke-width="2" stroke-linecap="round" stroke-linejoin="round" fill="none">
    <path d="M11.017 2.814a1 1 0 0 1 1.966 0l1.051 5.558a2 2 0 0 0 1.594 1.594l5.558 1.051a1 1 0 0 1 0 1.966l-5.558 1.051a2 2 0 0 0-1.594 1.594l-1.051 5.558a1 1 0 0 1-1.966 0l-1.051-5.558a2 2 0 0 0-1.594-1.594l-5.558-1.051a1 1 0 0 1 0-1.966l5.558-1.051a2 2 0 0 0 1.594-1.594z" fill="white" stroke="none"/>
    <path d="M20 2v4"/>
    <path d="M22 4h-4"/>
    <circle cx="4" cy="20" r="2" fill="white" stroke="none"/>
  </g>

  <!-- Wordmark — Plus Jakarta Sans 800, same as app -->
  <text
    x="72"
    y="37"
    font-family="'Plus Jakarta Sans', system-ui, sans-serif"
    font-size="28"
    font-weight="800"
    fill="#0f172a"
    letter-spacing="-0.6"
  >Hesabi</text>
</svg>
